<svg xmlns="http://www.w3.org/2000/svg" width="126" height="30" viewBox="0 0 126 30">
  <path fill="#FFF" d="M380.965848,35.6670224 C379.90928,35.6670224 379.172894,35.1654266 378.75667,34.1622199 C377.219843,34.1622199 375.533627,34.5357487 373.697972,35.2828175 C372.556024,35.7524036 371.787622,36.1846298 371.392743,36.5795091 C370.997864,36.9743883 370.787087,37.2838836 370.760406,37.5080043 C370.733725,37.7321249 370.843115,37.9215574 371.088581,38.0763074 C371.334046,38.2310573 371.678226,38.3778008 372.121131,38.5165422 C372.564036,38.6552835 373.078973,38.7940228 373.665955,38.9327641 C376.73961,39.6478157 378.687296,40.1440755 379.509072,40.4215582 C381.141951,40.9658512 382.363923,41.5634973 383.175027,42.2145144 C383.94344,42.8655315 384.327641,43.7513284 384.327641,44.8719317 C384.327641,45.8004315 384.042159,46.584842 383.471185,47.2251868 C382.900211,47.8655315 382.145149,48.436497 381.205977,48.9381003 C380.266804,49.4397037 379.218256,49.8852702 378.060299,50.2748132 C376.902342,50.6643563 375.680369,50.9978641 374.394344,51.2753469 C373.108318,51.5528296 371.840988,51.782283 370.592316,51.963714 C368.148334,52.3052312 366.061908,52.4759872 364.332978,52.4759872 C361.184616,52.4759872 358.756679,52.0971223 357.049093,51.339381 C356.408748,51.0512259 355.885808,50.3308489 355.480256,49.1782284 C355.160084,48.2283837 355,47.4466413 355,46.8329776 C355,46.2193139 355.053361,45.8804699 355.160085,45.8164354 C355.266809,45.752401 355.485591,45.7497329 355.816435,45.8084312 C356.14728,45.8671294 356.579506,45.9658478 357.113127,46.1045891 L359.034152,46.6168623 C362.011754,47.3639312 365.160069,47.73746 368.479189,47.73746 C370.923171,47.73746 372.993588,47.5186788 374.690502,47.0811099 C375.693708,46.8142996 376.227321,46.5154766 376.291355,46.1846318 C376.334045,45.8964767 375.544298,45.5389562 373.922092,45.1120598 C373.185695,44.9092839 372.331915,44.6958389 371.360726,44.4717182 C366.654192,43.3297702 363.815373,42.5933848 362.844184,42.26254 C361.872994,41.9316953 361.240663,41.6382083 360.947172,41.3820704 C360.65368,41.1259326 360.410887,40.8431179 360.218783,40.5336179 C359.866594,39.9252904 359.690502,39.3463208 359.690502,38.7966916 C359.690502,38.2470624 359.71985,37.8228403 359.778549,37.5240128 C359.837247,37.2251853 359.919957,36.9477067 360.026681,36.6915688 C360.250802,36.1686207 360.533616,35.8111002 360.875133,35.6189968 C363.617943,34.0821695 367.646718,32.7321296 372.96158,31.5688367 C377.689458,30.5229403 381.579494,30 384.631804,30 C385.250804,30 385.715046,30.1067225 386.024546,30.3201708 C386.558167,30.71505 386.792957,31.1366039 386.728922,31.5848453 C386.664888,32.0330866 386.528816,32.4466363 386.320704,32.8255069 C386.112592,33.2043776 385.85379,33.5458896 385.54429,33.8500534 C385.23479,34.1542171 384.89061,34.4210234 384.51174,34.6504803 C384.132869,34.8799371 383.740664,35.0693696 383.335112,35.2187834 C382.524009,35.5176109 381.734262,35.6670224 380.965848,35.6670224 Z M393.020277,47.7694771 C393.372467,47.6200633 393.863391,47.3852737 394.493063,47.0651014 C398.345804,45.0907052 400.45891,44.0021355 400.832444,43.7993597 L401.504803,43.4311633 C402.198509,42.982922 402.518677,42.6307377 402.465315,42.3745998 C402.347918,41.8303068 402.054431,41.6088576 401.584845,41.7102455 C401.115259,41.8116334 400.627004,41.9477046 400.120064,42.1184632 C399.613124,42.2892218 399.076844,42.4973307 398.511206,42.7427962 C397.326568,43.2337271 396.286024,43.7246507 395.389541,44.2155816 C392.251852,46.0192193 390.362863,47.1131251 389.722519,47.4973319 C389.263605,48.5325559 388.852723,49.5624282 388.489861,50.5869797 L386.552828,56.0618997 C385.944501,57.7588132 385.330846,58.9060803 384.711846,59.5037353 C384.381002,59.8345801 384.012809,60 383.607257,60 C382.60405,60 381.814304,59.6504838 381.237994,58.9514408 C380.661683,58.2523978 380.373533,57.3666009 380.373533,56.2940235 C380.373533,55.2214461 380.512272,54.1648931 380.789755,53.124333 C381.067237,52.0837728 381.451438,51.0298879 381.942369,49.9626467 C382.934904,47.8068195 384.263599,45.7951001 385.928495,43.927428 C386.942374,41.2059629 388.62859,38.5645806 390.987193,36.0032017 C392.427969,34.4450296 393.767336,33.3457876 395.005336,32.7054429 C395.624336,32.3852705 396.152613,32.2251868 396.590181,32.2251868 C397.02775,32.2251868 397.35859,32.3239051 397.582711,32.5213447 C397.806831,32.7187843 397.91889,32.9642461 397.91889,33.2577375 C397.91889,33.5512288 397.828176,33.9220895 397.646745,34.3703308 C397.465314,34.8185721 397.219852,35.320168 396.910352,35.8751334 C396.600852,36.4300988 396.237996,37.0224088 395.821772,37.6520811 L394.493063,39.5891142 C394.386339,39.7492004 394.332978,39.8932758 394.332978,40.0213447 C394.332978,40.2241205 394.455708,40.3255069 394.701174,40.3255069 C394.978657,40.3255069 395.490925,40.1494148 396.237994,39.7972252 L398.79936,38.6125934 C401.040566,37.5987142 403.185689,37.0917823 405.234792,37.0917823 C406.302033,37.0917823 407.305225,37.5987142 408.244397,38.6125934 C409.194242,39.6371449 409.669157,40.7363869 409.669157,41.9103522 C409.669157,43.7246622 408.927435,45.1227272 407.44397,46.1045891 L405.458911,47.4172892 C404.74386,47.8655305 404.007474,48.308429 403.249733,48.7459979 L400.944504,50.0106724 C398.351108,51.3553963 396.347392,52.0277481 394.933298,52.0277481 C393.519203,52.0277481 392.491999,51.851656 391.851654,51.4994664 C391.211309,51.1472768 390.891142,50.6510171 390.891142,50.0106724 C390.891142,49.146207 391.600847,48.3991494 393.020277,47.7694771 Z M426.173959,41.9103522 C426.173959,42.4866624 426.664883,42.7748132 427.646745,42.7748132 C428.372469,42.7748132 429.322299,42.4226289 430.496265,41.7182497 L431.776948,41.0138741 C432.171827,40.7897534 432.516007,40.6776948 432.809498,40.6776948 C433.10299,40.6776948 433.335111,40.7684089 433.50587,40.9498399 C433.676628,41.1312709 433.762006,41.3820688 433.762006,41.7022412 C433.762006,42.0224136 433.655284,42.3932743 433.441836,42.8148346 C433.228387,43.2363949 432.9349,43.6792933 432.561366,44.1435432 C432.187832,44.6077931 431.750269,45.0667 431.248666,45.5202775 C430.747063,45.973855 430.208114,46.3820686 429.631804,46.7449306 C428.351114,47.5453615 427.161158,47.945571 426.0619,47.945571 C424.898607,47.945571 423.970121,47.7481343 423.276414,47.3532551 C423.062966,47.2251861 422.854857,47.091783 422.652081,46.9530416 C421.510133,48.2550759 419.855934,49.4503681 417.689434,50.5389541 C415.384193,51.6915746 413.372474,52.2678762 411.654216,52.2678762 C409.850578,52.2678762 408.425832,51.5581715 407.379936,50.1387407 C406.536815,48.9861202 406.115261,47.8175086 406.115261,46.6328709 C406.115261,44.925285 407.027739,43.2977665 408.852721,41.7502668 C410.197445,40.6189911 411.496792,39.7598749 412.7508,39.1728922 C414.004809,38.5859096 415.138736,38.1323388 416.152615,37.8121665 C418.29777,37.1398045 420.229447,36.8036286 421.947705,36.8036286 C422.716119,36.8036286 423.401811,36.9503721 424.004803,37.2438634 C424.607794,37.5373547 425.05336,37.8335097 425.341515,38.1323372 C426.02455,38.8046992 426.366062,39.6638155 426.366062,40.7097118 C426.366062,41.0192118 426.334045,41.2593375 426.270011,41.4300961 C426.205976,41.6008546 426.173959,41.7609384 426.173959,41.9103522 Z M413.078975,44.9359658 L413.062967,44.9839915 L413.062967,45 C413.062967,45.4589137 413.164353,45.7577368 413.367129,45.8964781 C413.85806,46.1953057 414.375664,46.2726795 414.919957,46.1286019 C415.46425,45.9845244 415.981855,45.8057641 416.472785,45.5923159 C417.68944,45.0693677 418.788682,44.4076881 419.770544,43.6072572 C419.599786,43.26574 419.514408,42.9135557 419.514408,42.5506937 C419.514408,41.78228 419.850584,41.0138779 420.522946,40.2454642 C419.669153,40.2454642 418.516549,40.6456737 417.065101,41.4461046 C415.46424,42.3319148 414.263611,43.2443923 413.46318,44.1835646 C413.207042,44.5037369 413.078975,44.7545348 413.078975,44.9359658 Z M447.945571,41.9103522 C447.945571,42.4866624 448.436495,42.7748132 449.418356,42.7748132 C450.14408,42.7748132 451.093911,42.4226289 452.267876,41.7182497 L453.548559,41.0138741 C453.943438,40.7897534 454.287619,40.6776948 454.58111,40.6776948 C454.874601,40.6776948 455.106723,40.7684089 455.277481,40.9498399 C455.44824,41.1312709 455.533618,41.3820688 455.533618,41.7022412 C455.533618,42.0224136 455.426895,42.3932743 455.213447,42.8148346 C454.999999,43.2363949 454.706512,43.6792933 454.332978,44.1435432 C453.959443,44.6077931 453.521881,45.0667 453.020277,45.5202775 C452.518674,45.973855 451.979725,46.3820686 451.403415,46.7449306 C450.122726,47.5453615 448.93277,47.945571 447.833511,47.945571 C446.670218,47.945571 445.741732,47.7481343 445.048026,47.3532551 C444.834577,47.2251861 444.626468,47.091783 444.423693,46.9530416 C443.281745,48.2550759 441.627546,49.4503681 439.461046,50.5389541 C437.155805,51.6915746 435.144085,52.2678762 433.425827,52.2678762 C431.622189,52.2678762 430.197444,51.5581715 429.151547,50.1387407 C428.308427,48.9861202 427.886873,47.8175086 427.886873,46.6328709 C427.886873,44.925285 428.799351,43.2977665 430.624333,41.7502668 C431.969057,40.6189911 433.268404,39.7598749 434.522412,39.1728922 C435.77642,38.5859096 436.910347,38.1323388 437.924226,37.8121665 C440.069381,37.1398045 442.001059,36.8036286 443.719317,36.8036286 C444.487731,36.8036286 445.173423,36.9503721 445.776414,37.2438634 C446.379405,37.5373547 446.824972,37.8335097 447.113127,38.1323372 C447.796161,38.8046992 448.137673,39.6638155 448.137673,40.7097118 C448.137673,41.0192118 448.105657,41.2593375 448.041622,41.4300961 C447.977588,41.6008546 447.945571,41.7609384 447.945571,41.9103522 Z M434.850587,44.9359658 L434.834578,44.9839915 L434.834578,45 C434.834578,45.4589137 434.935965,45.7577368 435.138741,45.8964781 C435.629672,46.1953057 436.147276,46.2726795 436.691569,46.1286019 C437.235862,45.9845244 437.753466,45.8057641 438.244397,45.5923159 C439.461052,45.0693677 440.560294,44.4076881 441.542156,43.6072572 C441.371397,43.26574 441.286019,42.9135557 441.286019,42.5506937 C441.286019,41.78228 441.622195,41.0138779 442.294557,40.2454642 C441.440764,40.2454642 440.288161,40.6456737 438.836713,41.4461046 C437.235851,42.3319148 436.035223,43.2443923 435.234792,44.1835646 C434.978654,44.5037369 434.850587,44.7545348 434.850587,44.9359658 Z M470.565635,43.1750267 C470.565635,44.1462162 470.84845,44.6318036 471.414088,44.6318036 C472.801501,44.6318036 474.605112,43.6926455 476.824973,41.814301 L477.257204,41.4461046 C478.121669,40.8697943 478.82337,40.5816435 479.362327,40.5816435 C479.901283,40.5816435 480.242795,40.6616854 480.386873,40.8217716 C480.530951,40.9818578 480.602988,41.2379918 480.602988,41.5901814 C480.602988,42.3799399 480.202779,43.2177117 479.402348,44.1035219 C478.207038,45.5549699 476.568847,46.9316904 474.487727,48.2337247 C472.075762,49.7492072 469.914631,50.506937 468.004269,50.506937 C466.670217,50.506937 465.832446,49.7652155 465.490928,48.2817503 C465.394877,47.8975434 465.325507,47.5293507 465.282818,47.1771612 C465.176093,46.3233682 465.064035,45.848453 464.946638,45.7524013 C464.829242,45.6563496 464.59712,45.6643538 464.250267,45.7764141 C463.903413,45.8884744 463.492532,46.0752388 463.017609,46.3367129 C462.542687,46.598187 462.017079,46.9156865 461.440768,47.2892209 C458.388459,49.3169792 456.632873,50.4749185 456.173959,50.7630736 C455.074701,51.446108 454.33298,51.7876201 453.948773,51.7876201 C453.564566,51.7876201 453.188369,51.7075782 452.820171,51.547492 C452.451973,51.3874058 452.129137,51.184633 451.851654,50.9391676 C451.275344,50.3948745 450.987193,49.8399174 450.987193,49.2742796 C450.987193,46.0405388 451.691562,43.212392 453.10032,40.7897545 C454.039492,39.1568755 455.192096,38.0256168 456.558164,37.3959445 C457.251871,37.0650997 457.998929,36.8996798 458.79936,36.8996798 C460.26148,36.8996798 460.992529,37.3799312 460.992529,38.3404482 C460.992529,38.9274309 460.645681,39.8879336 459.951974,41.2219851 L459.471718,42.1664888 C459.130201,42.8175059 458.964781,43.1856986 458.975454,43.2710779 C459.039488,43.5912503 459.183563,43.751334 459.407684,43.751334 C459.65315,43.751334 460.016006,43.5699058 460.496265,43.2070438 L463.441836,41.0138741 L464.914621,39.9893276 C466.611535,38.8793968 467.860188,38.3244397 468.660619,38.3244397 C469.087515,38.3244397 469.477053,38.4951957 469.829242,38.8367129 C470.480259,39.4557128 470.805763,39.9946615 470.805763,40.4535752 C470.805763,40.602989 470.792423,40.7844173 470.765742,40.9978655 C470.739061,41.2113138 470.709712,41.4407672 470.677695,41.6862327 L470.613661,42.4386339 C470.581643,42.6947718 470.565635,42.9402336 470.565635,43.1750267 Z" transform="translate(-355 -30)"/>
</svg>
